<?xml version="1.0" standalone="no"?>
<!DOCTYPE svg PUBLIC "-//W3C//DTD SVG 20010904//EN"
 "http://www.w3.org/TR/2001/REC-SVG-20010904/DTD/svg10.dtd">
<svg version="1.0" xmlns="http://www.w3.org/2000/svg"
 width="423.000000pt" height="274.000000pt" viewBox="0 0 423.000000 274.000000"
 preserveAspectRatio="xMidYMid meet">

<g transform="translate(0.000000,274.000000) scale(0.100000,-0.100000)"
fill="#000000" stroke="none">
<path d="M2378 531 c-191 -39 -231 -385 -54 -478 40 -22 150 -22 191 0 81 42
125 126 125 242 0 143 -61 227 -175 238 -27 3 -66 2 -87 -2z m121 -50 c49 -34
66 -86 66 -196 -1 -108 -13 -145 -62 -191 -40 -37 -111 -34 -158 7 -21 19 -39
46 -45 71 -15 53 -15 195 0 233 34 89 129 125 199 76z"/>
<path d="M0 515 c0 -8 6 -15 14 -15 8 0 22 -7 30 -16 13 -13 16 -45 16 -192 0
-199 -3 -220 -33 -224 -11 -2 -22 -9 -25 -15 -3 -10 35 -13 167 -13 93 0 172
4 175 9 4 5 9 37 12 70 6 52 5 61 -9 61 -11 0 -20 -15 -28 -45 -6 -24 -17 -49
-24 -55 -8 -6 -46 -10 -92 -8 l-78 3 -5 160 c-3 88 -3 182 -1 208 3 44 6 49
32 54 16 3 29 12 29 19 0 11 -20 14 -90 14 -73 0 -90 -3 -90 -15z"/>
<path d="M470 515 c0 -8 11 -17 24 -21 l24 -6 4 -171 c3 -161 5 -174 27 -211
30 -48 72 -66 153 -66 79 0 125 23 155 76 21 36 23 52 23 196 0 129 3 159 16
172 8 9 20 16 25 16 5 0 9 7 9 15 0 12 -14 15 -69 15 -77 0 -100 -15 -52 -33
l31 -11 0 -156 c0 -130 -3 -162 -19 -197 -23 -50 -45 -63 -108 -63 -101 0
-121 40 -123 241 -1 79 -1 151 -1 160 1 9 12 20 26 23 14 4 25 13 25 21 0 12
-17 15 -85 15 -68 0 -85 -3 -85 -15z"/>
<path d="M1040 515 c0 -8 11 -17 25 -21 18 -4 44 -36 90 -105 36 -55 65 -103
65 -108 0 -11 -116 -185 -132 -198 -7 -6 -22 -12 -32 -14 -11 -2 -21 -10 -24
-17 -3 -10 15 -12 80 -10 47 2 83 7 83 13 0 6 -12 11 -27 13 -34 4 -35 16 -4
61 13 20 36 55 50 79 15 23 31 40 36 37 5 -3 32 -43 60 -88 l51 -82 -28 -5
c-15 -3 -27 -10 -25 -15 3 -13 181 -13 185 0 1 6 -9 11 -23 13 -19 2 -42 27
-98 108 -39 58 -72 112 -72 119 0 27 124 187 152 197 15 6 28 16 28 24 0 11
-18 14 -80 14 -62 0 -80 -3 -80 -14 0 -8 13 -17 29 -21 23 -5 28 -10 23 -23
-13 -35 -94 -152 -101 -147 -12 7 -91 141 -91 153 0 5 11 13 25 16 14 4 25 13
25 21 0 12 -18 15 -95 15 -77 0 -95 -3 -95 -15z"/>
<path d="M1610 516 c0 -8 11 -17 25 -20 l25 -6 -2 -207 c-3 -207 -3 -207 -26
-213 -52 -12 -23 -25 61 -28 68 -2 88 0 85 10 -3 7 -15 15 -29 18 -23 6 -24 8
-24 105 l0 100 115 0 115 0 6 -60 c9 -91 1 -143 -24 -147 -11 -2 -22 -9 -25
-15 -3 -10 18 -13 82 -13 68 0 86 3 86 14 0 8 -10 16 -22 18 l-23 3 0 210 0
210 23 3 c12 2 22 10 22 18 0 11 -18 14 -85 14 -86 0 -109 -11 -61 -30 20 -7
26 -18 31 -64 4 -31 4 -72 1 -91 l-7 -36 -117 3 -117 3 0 90 c0 86 1 89 24 95
14 3 26 11 29 18 3 9 -19 12 -82 12 -67 0 -86 -3 -86 -14z"/>
<path d="M2760 514 c0 -9 8 -18 19 -21 17 -4 19 -19 23 -166 7 -221 28 -266
139 -287 107 -21 194 25 218 115 6 22 11 106 11 186 l0 147 25 6 c14 4 25 13
25 21 0 12 -15 15 -75 15 -60 0 -75 -3 -75 -15 0 -8 11 -17 24 -21 32 -8 36
-27 36 -164 -1 -138 -12 -196 -47 -233 -23 -23 -35 -27 -82 -27 -60 0 -88 15
-112 60 -9 17 -15 77 -17 188 l-4 162 31 11 c17 6 31 17 31 25 0 11 -19 14
-85 14 -71 0 -85 -3 -85 -16z"/>
<path d="M3413 511 c-39 -25 -53 -49 -53 -96 0 -70 41 -114 152 -163 96 -42
125 -106 73 -157 -20 -21 -33 -25 -87 -25 -35 0 -69 4 -77 9 -8 5 -17 29 -20
53 -4 28 -11 44 -22 46 -13 2 -17 -9 -22 -49 -4 -31 -2 -58 4 -65 14 -17 131
-36 179 -28 55 9 101 41 124 88 16 32 17 44 7 75 -14 48 -29 61 -126 111 -44
23 -90 52 -102 66 -61 67 3 147 102 126 40 -8 50 -19 60 -64 3 -16 12 -28 19
-28 16 0 28 89 14 105 -5 6 -50 11 -101 13 -78 2 -97 0 -124 -17z"/>
<path d="M3810 516 c0 -8 10 -16 23 -18 22 -3 22 -4 25 -214 l2 -212 -25 -6
c-14 -4 -25 -11 -25 -16 0 -12 339 -14 357 -2 6 4 13 27 15 52 4 58 -19 62
-44 8 l-18 -38 -95 0 -96 0 3 103 3 102 55 0 c49 0 55 -2 60 -24 3 -14 11 -26
18 -29 9 -3 12 16 12 67 0 74 -9 88 -28 46 -10 -22 -18 -25 -67 -25 l-55 0 0
95 0 96 87 -3 c84 -3 87 -4 93 -28 8 -33 40 -40 40 -8 0 13 -3 33 -6 46 -6 22
-9 22 -170 22 -136 0 -164 -2 -164 -14z"/>
</g>
</svg>
